<?xml version="1.0" encoding="utf-8"?>
<!-- Generator: Adobe Illustrator 26.0.3, SVG Export Plug-In . SVG Version: 6.00 Build 0)  -->
<svg version="1.1" id="Layer_1" xmlns="http://www.w3.org/2000/svg" xmlns:xlink="http://www.w3.org/1999/xlink" x="0px" y="0px"
	 viewBox="0 0 512 372" style="enable-background:new 0 0 512 372;" xml:space="preserve">
<style type="text/css">
	.st0{fill:#F8B500;}
	.st1{fill:#FFFFFF;}
</style>
<g id="SvgjsG1678" transform="matrix(0.16396030711747098,0,0,0.16396030711747098,62.136846540974034,-20.167121528202543)">
	<path class="st0" d="M876.8,1025.3c8.2-58.7,25.4-115.8,51-169.2c0,0,0,0,0-0.2c1.9-4.2,4-8.2,6.1-12.3l0,0
		c72-141,198.7-246.4,350.6-291.7c18.1-5.4,37.1,5,42.4,23c0.2,0.6,0.3,1.1,0.5,1.8c12.8,53.6,66.6,86.7,120.2,73.9
		c7.4-1.8,14.6-4.3,21.4-7.8c-8.2-185.8-111-354.8-272.6-447.6c-3.8-2.2-7.8-4.5-11.7-6.6c-4-2.1-7.8-4.2-11.8-6.2
		c-4-2.1-8-4-12-5.9c-10.1-4.8-20.2-9.3-30.4-13.4c-4.2-1.6-8.2-3.2-12.3-4.8c-12.3-4.6-24.8-8.8-37.4-12.6
		c-4.2-1.3-8.5-2.4-12.6-3.5c-19-5.1-38.2-9.1-57.6-12.3c-4.3-0.6-8.6-1.3-13-1.9c-23.7-3.2-47.7-4.6-71.5-4.6
		c-13,0-26.1,0.5-39,1.4c-4.3,0.3-8.6,0.6-13,1.1l-6.6,0.6c-4.3,0.5-8.6,1-13,1.6l-6.4,1c-4.3,0.6-8.6,1.3-13,2.1
		c-2.1,0.3-4.3,0.8-6.4,1.1l-4.8,1c-3.2,0.6-6.4,1.3-9.6,1.9l-4.8,1l0,0c-4.3,1-8.5,1.9-12.8,3l0,0c-4.2,1-8.5,2.1-12.6,3.2
		l-6.4,1.8c-4.3,1.1-8.5,2.4-12.6,3.7c-6.2,1.9-12.5,4-18.7,6.2c-4.2,1.4-8.3,3-12.5,4.5c-4.2,1.4-8.2,3.2-12.3,4.8
		c-4.2,1.6-8.2,3.4-12.2,5.1s-8.2,3.5-12.2,5.4l-6.1,2.9c-4,1.9-8,3.8-12,5.9c-4,2.1-7.8,4.2-11.8,6.2l-4.8,2.6
		c-2.7,1.6-5.6,3-8.3,4.6c-1.4,0.8-2.7,1.6-4.2,2.4c-2.7,1.6-5.4,3.2-8.2,5c-2.7,1.6-5.4,3.4-8.2,5.1c-5.4,3.5-10.7,7-16,10.7
		c-6.6,4.6-13.1,9.3-19.7,14.2c-1.4,1.1-3,2.2-4.5,3.4c-1.8,1.4-3.7,2.9-5.4,4.2c-3.5,2.9-7.2,5.8-10.7,8.6l0,0c-3.5,3-7,5.9-10.6,9
		c-3.5,3-6.9,6.2-10.4,9.3c-5.1,4.8-10.1,9.6-15,14.5c-212.2,212-212.2,555.8,0,767.8c11.7,11.7,23.5,22.6,36,32.9
		c3.5,2.9,7,5.9,10.7,8.6c1.8,1.4,3.5,2.9,5.4,4.3c1.3,1.1,2.7,2.1,4,3.2c4.2,3,8.2,6.1,12.3,9.1c3.7,2.6,7.4,5.3,11.2,7.8
		c3.8,2.6,7.5,5,11.4,7.5l4.3,2.7c4.3,2.7,8.6,5.3,13,7.8c5.8,3.4,11.7,6.7,17.4,9.9c4,2.1,7.8,4.2,11.8,6.2
		c37.3,19,76.6,33.6,117.4,43.5c4.3,1.1,8.5,2.1,12.8,2.9c23.2,5.1,46.9,8.6,70.6,10.6C869.3,1147.4,868.2,1085.8,876.8,1025.3z
		 M1111.9,378.9c18.7-18.6,48.8-18.6,67.5,0c18.6,18.7,18.6,48.8,0,67.5c-18.6,18.6-48.8,18.6-67.5,0S1093.2,397.6,1111.9,378.9
		C1111.7,378.9,1111.7,378.9,1111.9,378.9z M622,1030.3l-8.5-7.4c-1.6-1.4-3.5-3-5.3-4.6l-5.8-5.6c-4-4-8.5-8.3-13.4-13.3
		s-9.6-10.6-14.9-16.5c-2.7-2.9-5.3-6.1-7.8-9.4l-8.2-10.2c-1.4-1.8-2.9-3.5-4.2-5.3c-1.3-1.8-2.6-3.7-4-5.6l-8.3-11.7l-2.1-3
		c-0.6-1.1-1.3-2.1-1.9-3.2l-4-6.4l-8.3-13.3l-7.8-14.2c-1.3-2.4-2.7-4.8-4-7.4c-1.3-2.4-2.6-5-3.7-7.5l-7.4-15.5
		c-2.4-5.3-4.5-10.7-6.9-16.3l-3.5-8.3c-1.1-2.9-2.1-5.6-3-8.5c-2.1-5.8-4-11.5-6.1-17.3c-1.8-5.9-3.5-12-5.3-17.9l-1.3-4.5
		c-0.5-1.4-0.8-3-1.3-4.6c-0.8-3-1.4-6.2-2.2-9.3c-0.8-3-1.4-6.2-2.2-9.3l-1.1-4.6l-1-4.8c-1.1-6.4-2.2-12.8-3.5-19.2
		c-4-26.1-6.1-52.3-6.2-78.7c0.2-26.4,2.4-52.6,6.2-78.7c1.1-6.4,2.4-12.8,3.5-19.2l1-4.8l1.1-4.6c0.8-3.2,1.4-6.2,2.2-9.3
		c2.7-12.5,6.6-24.5,10.1-36.3c2.1-5.8,4.2-11.7,6.1-17.4c1-2.9,1.9-5.8,3-8.5c1.1-2.7,2.2-5.6,3.5-8.3c2.2-5.4,4.5-10.9,6.9-16.2
		c2.4-5.3,5-10.4,7.4-15.5c1.3-2.6,2.4-5.1,3.7-7.5c1.3-2.4,2.7-4.8,4-7.2c2.7-4.8,5.3-9.6,7.8-14.2l8.2-13.3l4-6.4l2.1-3.2l2.1-3
		l8.3-11.8c1.4-1.9,2.7-3.8,4-5.6s2.9-3.5,4.2-5.3l8.2-10.2c2.6-3.4,5.1-6.6,7.8-9.4c5.3-5.9,10.2-11.5,14.9-16.5
		c4.8-5,9.3-9.3,13.4-13.3l5.8-5.6c1.9-1.8,3.7-3.2,5.3-4.6l8.5-7.4l7-6.1l-5.6,7.4l-6.9,9l-4.3,5.6c-1.4,2.1-3,4.2-4.6,6.4
		l-10.9,14.9c-3.7,5.6-7.7,11.7-12,18.1c-2.2,3.2-4.2,6.6-6.4,10.2l-6.6,10.9c-1.1,1.9-2.2,3.7-3.4,5.6l-3.2,5.9l-6.7,12.2l-1.6,3
		l-1.6,3.2c-1.1,2.1-2.1,4.3-3.2,6.6l-6.6,13.4c-2.1,4.6-4.2,9.4-6.2,14.2l-3.2,7.4c-1.1,2.4-1.9,5-2.9,7.5
		c-1.9,5-3.8,10.1-5.9,15.2c-1.9,5.1-3.5,10.6-5.4,15.8l-2.7,8c-1,2.7-1.6,5.4-2.4,8.1l-4.8,16.6c-1.4,5.6-2.7,11.3-4.2,17.1
		l-1.1,4.3c-0.5,1.4-0.6,2.9-1,4.3c-0.6,2.9-1.1,5.9-1.8,8.8c-2.6,11.7-4.2,23.8-6.1,35.8c-3,24.5-4.8,49.3-5,73.9
		c0.2,24.6,1.8,49.4,4.8,73.9c1.9,12,3.5,24.1,6.1,35.8l1.8,8.8c0.3,1.4,0.6,2.9,1,4.3l1.1,4.3c1.4,5.8,2.7,11.5,4.2,17.1l4.8,16.6
		c0.8,2.7,1.6,5.6,2.4,8.2c0.8,2.6,1.8,5.4,2.7,8c1.8,5.3,3.5,10.7,5.4,15.8c1.9,5.1,4,10.2,5.9,15.2c1,2.6,1.9,5.1,2.9,7.5
		s2.1,4.8,3.2,7.2c2.1,4.8,4.2,9.6,6.2,14.2l6.6,13.4c1.1,2.2,2.1,4.3,3.2,6.6l1.6,3.2c0.6,1.1,1.1,2.1,1.8,3.2l6.7,12.2l3.2,5.9
		c1.1,1.9,2.2,3.8,3.4,5.6l6.6,10.9c2.1,3.5,4.2,7,6.2,10.1c4.3,6.4,8.3,12.5,12,18.1l10.9,15c1.6,2.2,3.2,4.5,4.6,6.4l4.3,5.6
		l6.9,8.8l5.6,7.4L622,1030.3z M638.6,633c-19.2,19.2-50.4,19.2-69.6,0c-19.2-19.2-19.2-50.4,0-69.6c19.2-19.2,50.4-19.2,69.6,0
		C657.8,582.6,657.8,613.8,638.6,633z M1024,604.2c22.1,22.1,22.1,58,0,80.1c-22.1,22.1-58.1,22.1-80.2,0s-22.1-58,0-80.1l0,0
		C966,582.1,1002,582.1,1024,604.2L1024,604.2z M774.1,996.1c-19.2,19.2-50.2,19.2-69.3,0c-19.2-19.2-19.2-50.2,0-69.2
		c19.2-19.2,50.2-19.2,69.3,0C793.3,945.9,793.3,976.9,774.1,996.1z M797,763c-13,13-33.9,13-46.9,0c-13-13-13-33.9,0-46.9
		c13-13,33.9-13,46.9,0C809.8,729.1,809.8,750,797,763z M822,352.2c28.5-28.5,74.6-28.5,103,0c28.5,28.5,28.5,74.5,0,103
		c-28.5,28.5-74.6,28.5-103,0C795.1,427.2,796.5,381.6,822,352.2L822,352.2z"/>
	<path class="st0" d="M1740.7,647.5c-0.5,1-1.1,1.9-1.6,2.7s-1,1.6-1.4,2.4c-0.5,0.8-1.1,1.6-1.6,2.6s-1.3,1.9-1.9,2.9
		c-0.5,0.6-0.8,1.3-1.3,1.8c-0.6,0.8-1.3,1.8-1.9,2.6c-0.8,1.1-1.8,2.4-2.7,3.5c-1,1.1-1.9,2.2-2.9,3.4s-1.9,2.2-2.9,3.2
		s-2.1,2.1-3,3.2s-1.6,1.6-2.4,2.4c-0.6,0.6-1.1,1.1-1.8,1.6s-1.4,1.3-2.1,1.9c-1.1,1-2.2,1.9-3.4,2.9s-2.2,1.9-3.4,2.7
		s-2.4,1.8-3.5,2.6s-2.4,1.8-3.5,2.6s-2.4,1.6-3.7,2.4c-1.3,0.8-2.4,1.6-3.7,2.2s-2.6,1.4-3.8,2.2c-14.4,7.8-30.1,13.1-46.2,15.3
		c-1.4,0.2-2.9,0.3-4.2,0.5c-49.8,5.1-98.2-17.9-125.8-59.8c-2.2,1.9-4.5,3.8-6.9,5.6c-0.5,0.3-1,0.6-1.4,1l0,0
		c-2.7,1.9-5.4,3.8-8.2,5.6c-1.6,1-3.4,2.1-5.1,3c-1.8,1-3.5,1.9-5.1,2.7s-3.5,1.8-5.3,2.6c-3.5,1.6-7,3-10.6,4.3
		c-1.3,0.5-2.7,1-4,1.4s-2.6,0.8-4,1.3c-11.8,3.4-24.2,5.1-36.5,5.1c-62.1,0-116-42.5-130.6-103c-14.2,4.3-28.2,9.1-41.9,14.4l0,0
		c-245.1,95.3-387,352.1-337,610.2c2.2,11.5,5,22.9,7.8,34.2c54.1,205.3,226.6,368.4,450.1,399.8c3.2,0.5,6.4,0.8,9.6,1.3
		s6.4,0.8,9.6,1.1l4.8,0.5c3.2,0.3,6.4,0.6,9.6,0.8s6.4,0.5,9.6,0.6s6.4,0.3,9.4,0.5c7.8,0.3,15.8,0.5,23.7,0.5
		c266.6,0,499.2-196.2,537.4-467.5c0.6-4.8,1.3-9.6,1.8-14.4c0.3-3.2,0.6-6.4,1-9.6s0.6-6.4,0.8-9.6c0.2-3.2,0.5-6.1,0.6-9.3
		c0-0.2,0-0.3,0-0.5c0.2-3,0.3-6.2,0.5-9.3C2000,931,1900.4,749.4,1740.7,647.5z M1198.3,1295.7c5.6-39.8,42.4-67.6,82.2-62
		c39.8,5.6,67.7,42.4,62.1,82.2c-5.6,39.8-42.4,67.6-82.2,62l0,0C1220.4,1372.3,1192.5,1335.6,1198.3,1295.7
		C1198.1,1295.7,1198.1,1295.7,1198.3,1295.7L1198.3,1295.7z M1339.9,1065c4.3-31,33-52.6,64-48.3c31,4.3,52.6,32.9,48.3,64
		c-4.3,31-33,52.6-64,48.3l0,0C1357.2,1124.6,1335.6,1096,1339.9,1065L1339.9,1065L1339.9,1065z M1306.8,868.3L1306.8,868.3
		c9.9,22.2,4.5,48.1-13.4,64.6l0,0c-11.4,10.4-26.4,15.7-41.9,14.7c-1.4,0-2.9-0.2-4.3-0.5c-30.9-4.3-52.5-32.9-48.2-63.8
		s33-52.5,63.8-48.1C1282.3,837.9,1298.8,850.4,1306.8,868.3L1306.8,868.3z M1120.4,1036.1c26.1,3.8,44.2,28,40.3,54.1
		c-3.8,25.9-27.7,43.8-53.6,40.3l-1.6-0.3c-25.9-4.6-43.2-29.6-38.4-55.5C1071.6,1049.7,1095.1,1032.5,1120.4,1036.1L1120.4,1036.1z
		 M1480.4,1598.6l-11.2,0.8c-2.2,0.2-4.5,0.3-7,0.5l-8,0.2c-5.6,0-12,0.2-18.9,0.2c-6.9-0.3-14.2-0.8-22.1-1.1
		c-4-0.2-8-0.6-12.3-1.1l-13-1.4c-2.2-0.3-4.5-0.5-6.7-0.8l-6.9-1.1l-14.2-2.4l-3.7-0.6l-3.7-0.8l-7.4-1.8l-15.2-3.5l-15.5-4.5
		l-8-2.4c-2.7-0.8-5.3-1.8-8-2.7l-16.2-5.8c-5.4-2.1-10.9-4.3-16.3-6.6l-8.3-3.5c-2.7-1.1-5.4-2.6-8.2-3.8l-16.6-8
		c-5.4-2.9-10.9-5.9-16.5-8.9l-4.2-2.2c-1.4-0.8-2.7-1.6-4.2-2.4l-8.2-5c-2.7-1.6-5.4-3.4-8.2-5l-4.2-2.6l-4-2.7l-16-11
		c-42.9-30.9-80.3-68.4-111.4-111.3l-11-16l-2.7-4l-2.6-4.2c-1.6-2.7-3.4-5.4-5-8.2c-6.9-10.7-12.6-21.9-18.6-32.8
		c-2.7-5.6-5.3-11-8-16.6c-1.3-2.7-2.7-5.4-3.8-8.2c-1.1-2.7-2.2-5.6-3.4-8.3c-2.2-5.6-4.6-10.9-6.6-16.3
		c-1.9-5.4-3.8-10.9-5.8-16.2c-1-2.7-1.9-5.3-2.7-8s-1.6-5.3-2.4-8c-1-3-1.8-6.2-2.7-9.3c-0.6-2.1-1.3-4.3-1.8-6.4
		c-1.3-5.1-2.4-10.2-3.5-15.2c-0.6-2.6-1.1-5-1.8-7.4l-0.8-3.7c0-0.3-0.2-0.6-0.2-1l-0.5-2.7c-0.8-4.8-1.6-9.6-2.4-14.2
		c-0.5-2.4-0.8-4.6-1.1-6.9s-0.6-4.5-0.8-6.7c-0.5-4.5-1-8.8-1.4-12.9c-0.5-4.2-1-8.3-1.1-12.3c-0.5-8-0.8-15.4-1.1-22.1
		c0-6.9,0-13.1,0-18.9c0-2.9,0-5.4,0-8s0.3-4.8,0.5-7c0.3-4.3,0.6-8,0.8-11c0.5-6.1,0.8-9.3,0.8-9.3s0.5,3.2,1.3,9.1
		c0.3,3,0.8,6.7,1.3,11c0.3,2.2,0.6,4.5,0.8,7s0.8,5.1,1.3,7.8c1,5.4,1.9,11.5,2.9,18.2c1.4,6.6,2.9,13.8,4.3,21.3
		c0.6,3.8,1.8,7.7,2.7,11.7c1,4,1.9,8,3,12.3c0.5,2.1,1,4.3,1.6,6.4c0.6,2.1,1.3,4.3,1.9,6.4c1.3,4.3,2.6,8.8,3.8,13.3
		c0.3,1.1,0.6,2.2,1,3.4c0.2,0.6,0.5,1.3,0.6,1.9l0.5,1.4l2.4,6.9c1.6,4.6,3.2,9.4,4.8,14.2l4,10.4l1.6,4.2l2.9,7.4
		c1,2.4,2.1,4.8,3.2,7.4c2.2,5,4.3,9.9,6.6,14.9c2.2,5,4.8,9.9,7.4,15c1.3,2.6,2.6,5.1,3.8,7.7c1.3,2.6,2.7,5,4,7.5l8.3,15.2
		c3,5,6.1,10.1,9.3,15l2.2,3.8c0.8,1.3,1.6,2.6,2.4,3.8l5,7.5c6.4,10.1,13.9,19.7,21.1,29.6c30.1,39.3,65.3,74.4,104.5,104.4
		c9.9,7.2,19.5,14.6,29.6,20.9l7.5,5c1.3,0.8,2.6,1.6,3.8,2.4l3.8,2.2c5.1,3,10.1,6.1,15,9.1l15.2,8.3c2.6,1.3,5,2.9,7.5,4l7.7,3.8
		c5.1,2.4,10.1,5.1,15,7.4l14.9,6.6c2.4,1.1,4.8,2.2,7.4,3.2l7.4,2.9l14.4,5.6l14.2,4.8l6.9,2.4l3.4,1.1l3.4,1l13.3,3.8l6.4,1.9
		c2.1,0.6,4.3,1.1,6.4,1.6c4.2,1.1,8.3,2.1,12.3,3c4,1,7.8,2.1,11.7,2.7c7.5,1.6,14.7,2.9,21.3,4.3l18.2,2.9l7.8,1.3l6.9,0.8l11,1.3
		l9.3,1.3L1480.4,1598.6z M1636.7,1410.7c-3.8,26.9-28.6,45.6-55.5,41.9c-26.9-3.7-45.6-28.6-41.9-55.5
		c3.8-26.9,28.6-45.6,55.5-41.9C1621.6,1359.1,1640.5,1383.8,1636.7,1410.7L1636.7,1410.7L1636.7,1410.7z M1566,1178.9
		c2.6-18.1,19.4-30.7,37.4-28.1c18.1,2.6,30.7,19.3,28.2,37.4c-2.6,18.1-19.4,30.7-37.4,28.1C1576,1213.7,1563.6,1196.9,1566,1178.9
		L1566,1178.9z M1650.3,930.8c-5.6,39.5-42.1,67-81.4,61.4c-39.5-5.6-67-42.1-61.4-81.4c5.6-39.5,42.1-67,81.4-61.4l0,0
		C1628.4,854.9,1655.9,891.4,1650.3,930.8L1650.3,930.8z M1845.2,1083.7c-3.7,26.9-28.5,45.4-55.4,41.7
		c-26.9-3.7-45.4-28.5-41.8-55.3c3.7-26.7,28.5-45.4,55.4-41.7C1830.3,1032.2,1848.8,1057,1845.2,1083.7L1845.2,1083.7
		L1845.2,1083.7z"/>
</g>
<g id="SvgjsG1679" transform="matrix(2.4295988729888043,0,0,2.4295988729888043,-2.680991417661452,163.42512697412323)">
	<path class="st1" d="M1.1,48.6H12c1.2,0,2.3,0.2,3.4,0.6c1,0.4,1.9,0.9,2.6,1.5s1.3,1.4,1.7,2.2c0.4,0.8,0.6,1.7,0.6,2.6
		c0,1.1-0.2,2.1-0.5,3.1s-0.8,1.8-1.5,2.5c-0.7,0.7-1.6,1.3-2.6,1.7s-2.3,0.6-3.7,0.6H8.7V68h2.2v4.3H1.1V68h2.4V52.9H1.1V48.6
		L1.1,48.6z M8.7,52.9v6.4h2.1c1.2,0,2.1-0.2,2.8-0.8s1.1-1.3,1.1-2.4c0-1-0.3-1.8-1-2.4c-0.7-0.6-1.6-0.9-2.9-0.9L8.7,52.9
		L8.7,52.9z M22,48.6h9.5v4.3h-2.2v9.8c0,0.9,0.1,1.7,0.3,2.3c0.2,0.6,0.5,1.1,0.9,1.5s0.8,0.7,1.3,0.9s1,0.3,1.6,0.3
		c0.6,0,1.2-0.1,1.7-0.2c0.5-0.2,0.9-0.4,1.3-0.8s0.6-0.9,0.8-1.5c0.2-0.6,0.3-1.4,0.3-2.4v-9.8H35v-4.3h9.5v4.3h-1.9v9.2
		c0,1.7-0.2,3.1-0.7,4.4s-1.1,2.4-2,3.3s-1.8,1.6-3,2.1s-2.3,0.7-3.6,0.7c-1.3,0-2.5-0.2-3.6-0.7s-2.1-1.1-2.9-2
		c-0.8-0.9-1.5-1.9-2-3.2s-0.7-2.7-0.7-4.3v-9.5H22L22,48.6L22,48.6z M47.4,48.6h12.5c1.2,0,2.3,0.2,3.3,0.5s1.8,0.8,2.4,1.5
		c0.7,0.6,1.2,1.3,1.5,2.1c0.3,0.8,0.5,1.7,0.5,2.5c0,0.8-0.1,1.5-0.3,2.1c-0.2,0.6-0.4,1.1-0.8,1.6s-0.7,0.9-1.2,1.2
		c-0.5,0.4-1,0.7-1.6,1c0.5,0.3,1,0.7,1.4,1.2s0.7,1.3,0.9,2.2l0.8,3.1h1.9l0,4.6H62L61,66.7c-0.1-0.7-0.2-1.2-0.4-1.7
		c-0.2-0.5-0.5-0.9-0.8-1.2c-0.3-0.3-0.7-0.5-1.2-0.7s-1-0.2-1.7-0.2h-2V68h2.2v4.3h-9.8V68h2.5V52.9h-2.5L47.4,48.6L47.4,48.6z
		 M55,52.9v5.7h3.1c0.6,0,1.1,0,1.6-0.2c0.5-0.1,0.9-0.3,1.2-0.5c0.3-0.2,0.6-0.5,0.8-0.9c0.2-0.3,0.3-0.8,0.3-1.3
		c0-0.9-0.3-1.6-1-2.1s-1.6-0.8-2.9-0.8H55L55,52.9z M71.3,48.6h18.8v8.1H85v-3.4h-6.1V58h4.7v4.5h-4.7V68H85v-4.2h5.1v8.5H71.3V68
		h2.5V53.3h-2.5V48.6L71.3,48.6z M99.2,68h2.4V52.9h-2.4v-4.3l11.6,0c1.1,0,2.1,0.2,2.9,0.6c0.9,0.4,1.7,0.9,2.3,1.5
		c0.7,0.7,1.2,1.4,1.5,2.3s0.5,1.8,0.5,2.8c0,1.2-0.2,2.1-0.6,2.8s-1,1.3-1.7,1.8c0.8,0.5,1.4,1.1,1.8,1.8s0.7,1.6,0.7,2.7
		c0,1.1-0.2,2.1-0.6,2.9c-0.4,0.9-0.9,1.7-1.5,2.3s-1.4,1.2-2.3,1.5c-0.9,0.4-1.8,0.5-2.8,0.5H99.2V68L99.2,68z M106.8,62.5V68h3.9
		c0.3,0,0.6-0.1,0.8-0.2s0.5-0.4,0.7-0.6c0.2-0.3,0.3-0.6,0.5-0.9s0.2-0.7,0.2-1.1c0-0.4-0.1-0.7-0.2-1.1c-0.1-0.3-0.3-0.6-0.5-0.9
		c-0.2-0.2-0.4-0.4-0.7-0.6s-0.5-0.2-0.8-0.2L106.8,62.5L106.8,62.5z M106.8,52.9v5.3h3.7c0.3,0,0.6-0.1,0.8-0.2s0.5-0.3,0.7-0.6
		c0.2-0.2,0.3-0.5,0.5-0.8s0.2-0.6,0.2-1c0-0.3-0.1-0.7-0.2-1s-0.3-0.6-0.5-0.9s-0.4-0.5-0.7-0.6s-0.5-0.2-0.8-0.2L106.8,52.9
		L106.8,52.9z M133.1,68h2.4l-1.1-3.4h-7.3L126,68h2.5v4.3h-9V68h1.8l6.4-19.4h6.3l6.3,19.4h1.7v4.3h-9L133.1,68L133.1,68z
		 M128.3,60.6h4.8l-2.4-7.7L128.3,60.6z M144.2,48.6h10.1v4.3h-2.5v6.9l7.6-6.6v-4.6h8.1v4.6h-1.8l-7.9,6.8l7.6,7.6h1.9v4.6h-7.9
		v-4.6l-7.6-7.6v8h2.5v4.3h-10.1V68h2.4V52.9h-2.4V48.6L144.2,48.6z M170.1,48.6h18.8v8.1h-5.1v-3.4h-6.1V58h4.7v4.5h-4.7V68h6.1
		v-4.2h5.1v8.5h-18.8V68h2.5V53.3h-2.5V48.6L170.1,48.6z M191.1,48.6h9.1c1.1,0,2.1,0.1,3.1,0.4s1.9,0.7,2.8,1.2s1.6,1.1,2.3,1.8
		c0.7,0.7,1.3,1.5,1.8,2.4c0.5,0.9,0.9,1.8,1.2,2.8s0.4,2.1,0.4,3.2s-0.1,2.1-0.4,3.2c-0.3,1-0.7,1.9-1.2,2.8
		c-0.5,0.9-1.1,1.7-1.8,2.4s-1.5,1.3-2.3,1.9c-0.9,0.5-1.8,0.9-2.8,1.2s-2,0.4-3.1,0.4h-9.1V68h1.9V52.9h-1.9V48.6L191.1,48.6z
		 M198.2,52.9V68h2c0.8,0,1.6-0.2,2.4-0.6c0.8-0.4,1.4-0.9,1.9-1.6c0.6-0.7,1-1.5,1.3-2.4c0.3-0.9,0.5-1.9,0.5-3c0-1-0.2-2-0.5-3
		c-0.3-0.9-0.8-1.7-1.3-2.4s-1.2-1.2-1.9-1.6c-0.8-0.4-1.6-0.6-2.4-0.6L198.2,52.9L198.2,52.9z"/>
</g>
<g id="SvgjsG1680" transform="matrix(0.7106936374870546,0,0,0.7106936374870546,27.914716844833986,218.10539885301554)">
	<path class="st0" d="M26.7,193.2l5.1,18.8h0.1l5.6-18.8h3l5.5,18.8h0.1l5.2-18.8h2.8l-6.7,22.6h-2.9L39,196.7H39l-5.6,19.2h-2.9
		l-6.6-22.6H26.7z M87.8,193.2v2.5H76.2v7.1H87v2.5H76.2v8.1h12.1v2.5H73.6v-22.6L87.8,193.2L87.8,193.2z M111.7,193.2v7.7h-2.3
		v-7.7H111.7z M140.3,193.2c3,0,5.1,0.5,6.5,1.5c1.4,1,2.1,2.6,2.1,4.7c0,1.6-0.5,2.9-1.4,3.9s-2.4,1.7-4.2,2.1l6.4,10.4h-3.3
		l-6.1-10.2h-3.5v10.2h-2.7v-22.6C134.1,193.2,140.3,193.2,140.3,193.2z M140,203.2c2.1,0,3.6-0.3,4.6-0.9c1-0.6,1.4-1.5,1.4-2.9
		c0-1.3-0.4-2.2-1.3-2.8c-0.9-0.6-2.2-0.9-4-0.9h-3.9v7.5L140,203.2L140,203.2z M184.3,193.2v2.5h-11.5v7.1h10.8v2.5h-10.8v8.1h12.1
		v2.5h-14.8v-22.6L184.3,193.2L184.3,193.2z M240.4,193.2v16.8c0,1.9-0.6,3.5-1.7,4.6c-1.1,1.2-2.7,1.7-4.7,1.7
		c-1.6,0-2.9-0.4-4-1.2c-1.1-0.8-1.7-2-2.1-3.6l2.7-0.5c0.4,1.9,1.5,2.9,3.4,2.9c2.5,0,3.7-1.6,3.7-4.7v-16L240.4,193.2L240.4,193.2
		z M265,193.2v13.6c0,2.3,0.5,4,1.5,5.2s2.4,1.8,4.4,1.9c1.9,0,3.4-0.6,4.4-1.8c1-1.2,1.5-2.9,1.5-5.1v-13.8h2.7v14.1
		c0,2.9-0.8,5.1-2.2,6.7s-3.6,2.4-6.3,2.4c-2.7,0-4.8-0.8-6.3-2.4c-1.5-1.6-2.3-3.9-2.3-6.7v-14.1L265,193.2L265,193.2z
		 M307.9,192.7c2.8,0,4.9,0.9,6.3,2.6l-2.2,1.9c-0.9-1.3-2.2-2-4.1-2.1c-1.4,0-2.6,0.3-3.5,1c-0.9,0.7-1.3,1.6-1.3,2.8
		c0,1,0.3,1.8,1,2.4c0.7,0.6,2,1.2,3.8,1.8c2.4,0.7,4.1,1.6,5.2,2.6c1,1,1.5,2.4,1.5,4.1c0,2-0.8,3.6-2.2,4.8
		c-1.5,1.2-3.4,1.8-5.7,1.8c-1.6,0-2.9-0.3-4.2-0.8s-2.1-1.3-2.8-2.3l2.3-1.9c0.5,0.8,1.2,1.4,2,1.9c0.9,0.4,1.8,0.7,2.8,0.7
		c1.3,0,2.5-0.4,3.5-1.1s1.5-1.7,1.5-2.8c0-1-0.3-1.8-0.9-2.4c-0.6-0.6-1.5-1.1-2.8-1.5l-2.6-0.9c-1.9-0.7-3.3-1.5-4.1-2.5
		c-0.8-1-1.2-2.2-1.2-3.7c0-1.9,0.7-3.5,2.1-4.7C303.8,193.3,305.7,192.7,307.9,192.7z M350.7,193.2v2.5h-7.5v20.1h-2.7v-20.1H333
		v-2.5H350.7L350.7,193.2z M402.4,193.2c2.4,0,4.2,0.5,5.5,1.5c1.3,1,2,2.3,2,4.1c0,1.3-0.4,2.4-1.1,3.3c-0.7,0.9-1.7,1.5-2.9,1.9
		v0.1c1.5,0.1,2.7,0.7,3.7,1.8c1,1.1,1.5,2.3,1.5,3.8c0,2-0.8,3.6-2.3,4.6c-1.5,1.1-3.7,1.7-6.5,1.7h-6.9v-22.6L402.4,193.2
		L402.4,193.2z M402,202.8c1.6,0,2.9-0.3,3.7-0.9c0.9-0.6,1.3-1.5,1.3-2.8c0-2.2-1.6-3.4-4.7-3.4h-4.1v7.1H402L402,202.8z
		 M402.8,213.4c1.6,0,2.9-0.4,3.9-1.1s1.5-1.7,1.5-2.9c0-1.4-0.5-2.4-1.4-3.1c-1-0.7-2.3-1-3.9-1h-4.6v8.1H402.8z M441.8,193.2
		l9.6,22.6h-3.1l-2.3-5.6h-11.3l-2.3,5.6h-3l10-22.6H441.8z M440.5,196.7l-4.7,11.1h9.2L440.5,196.7L440.5,196.7z M473.5,193.2v9.8
		h0.4l10.3-9.8h3.9l-11.2,10.3l11.7,12.3h-3.9l-10.8-11.5h-0.4v11.5h-2.7v-22.6H473.5L473.5,193.2z M510.1,193.2v22.6h-2.7v-22.6
		H510.1z M535.4,193.2l13.1,18.8h0.1v-18.8h2.7v22.6h-3.4l-13.1-18.8h-0.1v18.8H532v-22.6H535.4z M584.2,192.7c3.3,0,6,1,8,3l-2,2.1
		c-0.8-0.8-1.7-1.5-2.8-1.9s-2.2-0.7-3.4-0.7c-2.6,0-4.8,0.9-6.5,2.7c-1.7,1.8-2.6,4-2.6,6.7c0,2.8,0.9,5,2.7,6.8s4,2.6,6.7,2.6
		c2,0,3.8-0.4,5.6-1.3v-6.9h-5.2v-2.5h7.9v11.1c-2.6,1.4-5.4,2.1-8.5,2.1c-3.6,0-6.5-1.1-8.7-3.3s-3.4-5.1-3.4-8.5
		c0-3.5,1.2-6.3,3.5-8.5C577.7,193.9,580.6,192.7,584.2,192.7L584.2,192.7z M618.1,214.2c0,0.5-0.2,1-0.6,1.3
		c-0.4,0.4-0.8,0.6-1.3,0.6c-0.5,0-0.9-0.2-1.3-0.6c-0.4-0.4-0.6-0.8-0.6-1.3s0.2-1,0.6-1.3c0.4-0.4,0.8-0.6,1.4-0.6s1,0.2,1.4,0.6
		C617.9,213.2,618.1,213.6,618.1,214.2L618.1,214.2z"/>
</g>
</svg>
