<?xml version="1.0" encoding="utf-8"?>
<!-- Generator: Adobe Illustrator 26.0.3, SVG Export Plug-In . SVG Version: 6.00 Build 0)  -->
<svg version="1.1" id="Layer_1" xmlns="http://www.w3.org/2000/svg" xmlns:xlink="http://www.w3.org/1999/xlink" x="0px" y="0px"
	 viewBox="0 0 512 372" style="enable-background:new 0 0 512 372;" xml:space="preserve">
<style type="text/css">
	.st0{fill:#F8B500;}
	.st1{fill:#393E46;}
</style>
<g id="SvgjsG1678" transform="matrix(0.16396030711747098,0,0,0.16396030711747098,62.136846540974034,-20.167121528202543)">
	<path class="st0" d="M876.83,1025.34c8.16-58.68,25.44-115.77,51.04-169.17c0,0,0,0,0-0.16c1.92-4.16,4-8.15,6.08-12.31l0,0
		c72-141.03,198.72-246.4,350.56-291.66c18.08-5.44,37.12,4.96,42.4,23.03c0.16,0.64,0.32,1.12,0.48,1.76
		c12.8,53.57,66.56,86.67,120.16,73.87c7.36-1.76,14.56-4.32,21.44-7.84c-8.16-185.8-111.04-354.82-272.64-447.56
		c-3.84-2.24-7.84-4.48-11.68-6.56c-4-2.08-7.84-4.16-11.84-6.24c-4-2.08-8-4-12-5.92c-10.08-4.8-20.16-9.27-30.4-13.43
		c-4.16-1.6-8.16-3.2-12.32-4.8c-12.32-4.64-24.8-8.79-37.44-12.63c-4.16-1.28-8.48-2.4-12.64-3.52
		c-19.04-5.12-38.24-9.11-57.6-12.31c-4.32-0.64-8.64-1.28-12.96-1.92c-23.68-3.2-47.68-4.64-71.52-4.64
		c-12.96,0-26.08,0.48-39.04,1.44c-4.32,0.32-8.64,0.64-12.96,1.12l-6.56,0.64c-4.32,0.48-8.64,0.96-12.96,1.6l-6.4,0.96
		c-4.32,0.64-8.64,1.28-12.96,2.08c-2.08,0.32-4.32,0.8-6.4,1.12l-4.8,0.96c-3.2,0.64-6.4,1.28-9.6,1.92l-4.8,0.96l0,0
		c-4.32,0.96-8.48,1.92-12.8,3.04l0,0c-4.16,0.96-8.48,2.08-12.64,3.2l-6.4,1.76c-4.32,1.12-8.48,2.4-12.64,3.68
		c-6.24,1.92-12.48,4-18.72,6.24c-4.16,1.44-8.32,3.04-12.48,4.48s-8.16,3.2-12.32,4.8c-4.16,1.6-8.16,3.36-12.16,5.12
		c-4,1.76-8.16,3.52-12.16,5.44l-6.08,2.88c-4,1.92-8,3.84-12,5.92s-7.84,4.16-11.84,6.24l-4.8,2.56c-2.72,1.6-5.6,3.04-8.32,4.64
		c-1.44,0.8-2.72,1.6-4.16,2.4c-2.72,1.6-5.44,3.2-8.16,4.96c-2.72,1.6-5.44,3.36-8.16,5.12c-5.44,3.52-10.72,7.04-16,10.71
		c-6.56,4.64-13.12,9.27-19.68,14.23c-1.44,1.12-3.04,2.24-4.48,3.36c-1.76,1.44-3.68,2.88-5.44,4.16
		c-3.52,2.88-7.2,5.76-10.72,8.63l0,0c-3.52,3.04-7.04,5.92-10.56,8.95c-3.52,3.04-6.88,6.24-10.4,9.27
		c-5.12,4.8-10.08,9.59-15.04,14.55c-212.16,212.03-212.16,555.81,0,767.83c11.68,11.67,23.52,22.55,36,32.94
		c3.52,2.88,7.04,5.92,10.72,8.63c1.76,1.44,3.52,2.88,5.44,4.32c1.28,1.12,2.72,2.08,4,3.2c4.16,3.04,8.16,6.08,12.32,9.11
		c3.68,2.56,7.36,5.28,11.2,7.84c3.84,2.56,7.52,4.96,11.36,7.52l4.32,2.72c4.32,2.72,8.64,5.28,12.96,7.84
		c5.76,3.36,11.68,6.72,17.44,9.91c4,2.08,7.84,4.16,11.84,6.24c37.28,19.03,76.64,33.58,117.44,43.49
		c4.32,1.12,8.48,2.08,12.8,2.88c23.2,5.12,46.88,8.63,70.56,10.55C869.31,1147.35,868.19,1085.78,876.83,1025.34z M1111.87,378.87
		c18.72-18.55,48.8-18.55,67.52,0c18.56,18.71,18.56,48.77,0,67.48c-18.56,18.55-48.8,18.55-67.52,0
		C1093.15,427.8,1093.15,397.58,1111.87,378.87C1111.71,378.87,1111.71,378.87,1111.87,378.87z M621.95,1030.3l-8.48-7.36
		c-1.6-1.44-3.52-3.04-5.28-4.64l-5.76-5.6c-4-4-8.48-8.31-13.44-13.27c-4.96-4.96-9.6-10.55-14.88-16.47
		c-2.72-2.88-5.28-6.08-7.84-9.43l-8.16-10.23c-1.44-1.76-2.88-3.52-4.16-5.28c-1.28-1.76-2.56-3.68-4-5.6l-8.32-11.67l-2.08-3.04
		c-0.64-1.12-1.28-2.08-1.92-3.2l-4-6.4l-8.32-13.27l-7.84-14.23c-1.28-2.4-2.72-4.8-4-7.36c-1.28-2.4-2.56-4.96-3.68-7.52
		l-7.36-15.51c-2.4-5.28-4.48-10.71-6.88-16.31l-3.52-8.31c-1.12-2.88-2.08-5.6-3.04-8.47c-2.08-5.76-4-11.51-6.08-17.27
		c-1.76-5.92-3.52-11.99-5.28-17.91l-1.28-4.48c-0.48-1.44-0.8-3.04-1.28-4.64c-0.8-3.04-1.44-6.24-2.24-9.27
		c-0.8-3.04-1.44-6.24-2.24-9.27l-1.12-4.64l-0.96-4.8c-1.12-6.4-2.24-12.79-3.52-19.19c-4-26.06-6.08-52.29-6.24-78.67
		c0.16-26.38,2.4-52.61,6.24-78.67c1.12-6.4,2.4-12.79,3.52-19.19l0.96-4.8l1.12-4.64c0.8-3.2,1.44-6.24,2.24-9.27
		c2.72-12.47,6.56-24.46,10.08-36.3c2.08-5.76,4.16-11.67,6.08-17.43c0.96-2.88,1.92-5.76,3.04-8.47c1.12-2.72,2.24-5.6,3.52-8.31
		c2.24-5.44,4.48-10.87,6.88-16.15c2.4-5.28,4.96-10.39,7.36-15.51c1.28-2.56,2.4-5.12,3.68-7.52c1.28-2.4,2.72-4.8,4-7.2
		c2.72-4.8,5.28-9.59,7.84-14.23l8.16-13.27l4-6.4l2.08-3.2l2.08-3.04l8.32-11.83c1.44-1.92,2.72-3.84,4-5.6
		c1.28-1.76,2.88-3.52,4.16-5.28l8.16-10.23c2.56-3.36,5.12-6.56,7.84-9.43c5.28-5.92,10.24-11.51,14.88-16.47
		c4.8-4.96,9.28-9.27,13.44-13.27l5.76-5.6c1.92-1.76,3.68-3.2,5.28-4.64l8.48-7.36l7.04-6.08l-5.6,7.36l-6.88,8.95l-4.32,5.6
		c-1.44,2.08-3.04,4.16-4.64,6.4l-10.88,14.87c-3.68,5.6-7.68,11.67-12,18.07c-2.24,3.2-4.16,6.56-6.4,10.23l-6.56,10.87
		c-1.12,1.92-2.24,3.68-3.36,5.6l-3.2,5.92l-6.72,12.15l-1.6,3.04l-1.6,3.2c-1.12,2.08-2.08,4.32-3.2,6.56l-6.56,13.43
		c-2.08,4.64-4.16,9.43-6.24,14.23l-3.2,7.36c-1.12,2.4-1.92,4.96-2.88,7.52c-1.92,4.96-3.84,10.07-5.92,15.19
		c-1.92,5.12-3.52,10.55-5.44,15.83l-2.72,7.99c-0.96,2.72-1.6,5.44-2.4,8.15l-4.8,16.63c-1.44,5.6-2.72,11.35-4.16,17.11
		l-1.12,4.32c-0.48,1.44-0.64,2.88-0.96,4.32c-0.64,2.88-1.12,5.92-1.76,8.79c-2.56,11.67-4.16,23.82-6.08,35.82
		c-3.04,24.46-4.8,49.25-4.96,73.87c0.16,24.62,1.76,49.41,4.8,73.87c1.92,11.99,3.52,24.14,6.08,35.82l1.76,8.79
		c0.32,1.44,0.64,2.88,0.96,4.32l1.12,4.32c1.44,5.76,2.72,11.51,4.16,17.11l4.8,16.63c0.8,2.72,1.6,5.6,2.4,8.15
		c0.8,2.56,1.76,5.44,2.72,7.99c1.76,5.28,3.52,10.71,5.44,15.83c1.92,5.12,4,10.23,5.92,15.19c0.96,2.56,1.92,5.12,2.88,7.52
		c0.96,2.4,2.08,4.8,3.2,7.2c2.08,4.8,4.16,9.59,6.24,14.23l6.56,13.43c1.12,2.24,2.08,4.32,3.2,6.56l1.6,3.2
		c0.64,1.12,1.12,2.08,1.76,3.2l6.72,12.15l3.2,5.92c1.12,1.92,2.24,3.84,3.36,5.6l6.56,10.87c2.08,3.52,4.16,7.04,6.24,10.07
		c4.32,6.4,8.32,12.47,12,18.07l10.88,15.03c1.6,2.24,3.2,4.48,4.64,6.4l4.32,5.6l6.88,8.79l5.6,7.36L621.95,1030.3z M638.59,632.95
		c-19.2,19.19-50.4,19.19-69.6,0c-19.2-19.19-19.2-50.37,0-69.56c19.2-19.19,50.4-19.19,69.6,0S657.79,613.76,638.59,632.95z
		 M1024.03,604.17c22.08,22.07,22.08,58.04,0,80.11c-22.08,22.07-58.08,22.07-80.16,0c-22.08-22.07-22.08-58.04,0-80.11l0,0
		C965.95,582.1,1001.95,582.1,1024.03,604.17L1024.03,604.17z M774.11,996.08c-19.2,19.19-50.24,19.19-69.28,0
		c-19.2-19.19-19.2-50.21,0-69.24c19.2-19.19,50.24-19.19,69.28,0C793.31,945.87,793.31,976.89,774.11,996.08z M796.99,762.95
		c-12.96,12.95-33.92,12.95-46.88,0c-12.96-12.95-12.96-33.9,0-46.85c12.96-12.95,33.92-12.95,46.88,0
		C809.79,729.05,809.79,750,796.99,762.95z M821.95,352.17c28.48-28.46,74.56-28.46,103.04,0c28.48,28.46,28.48,74.51,0,102.97
		c-28.48,28.46-74.56,28.46-103.04,0C795.07,427.16,796.51,381.59,821.95,352.17L821.95,352.17z"/>
	<path class="st0" d="M1740.67,647.5c-0.48,0.96-1.12,1.92-1.6,2.72s-0.96,1.6-1.44,2.4c-0.48,0.8-1.12,1.6-1.6,2.56
		s-1.28,1.92-1.92,2.88c-0.48,0.64-0.8,1.28-1.28,1.76c-0.64,0.8-1.28,1.76-1.92,2.56c-0.8,1.12-1.76,2.4-2.72,3.52
		c-0.96,1.12-1.92,2.24-2.88,3.36s-1.92,2.24-2.88,3.2c-0.96,0.96-2.08,2.08-3.04,3.2s-1.6,1.6-2.4,2.4
		c-0.64,0.64-1.12,1.12-1.76,1.6c-0.64,0.48-1.44,1.28-2.08,1.92c-1.12,0.96-2.24,1.92-3.36,2.88c-1.12,0.96-2.24,1.92-3.36,2.72
		c-1.12,0.8-2.4,1.76-3.52,2.56c-1.12,0.8-2.4,1.76-3.52,2.56c-1.12,0.8-2.4,1.6-3.68,2.4c-1.28,0.8-2.4,1.6-3.68,2.24
		c-1.28,0.64-2.56,1.44-3.84,2.24c-14.4,7.84-30.08,13.11-46.24,15.35c-1.44,0.16-2.88,0.32-4.16,0.48
		c-49.76,5.12-98.24-17.91-125.76-59.8c-2.24,1.92-4.48,3.84-6.88,5.6c-0.48,0.32-0.96,0.64-1.44,0.96l0,0
		c-2.72,1.92-5.44,3.84-8.16,5.6c-1.6,0.96-3.36,2.08-5.12,3.04c-1.76,0.96-3.52,1.92-5.12,2.72c-1.6,0.8-3.52,1.76-5.28,2.56
		c-3.52,1.6-7.04,3.04-10.56,4.32c-1.28,0.48-2.72,0.96-4,1.44c-1.28,0.48-2.56,0.8-4,1.28c-11.84,3.36-24.16,5.12-36.48,5.12
		c-62.08,0-116-42.53-130.56-102.97c-14.24,4.32-28.16,9.11-41.92,14.39l0,0c-245.12,95.3-387.04,352.1-336.96,610.17
		c2.24,11.51,4.96,22.87,7.84,34.22c54.08,205.31,226.56,368.41,450.08,399.75c3.2,0.48,6.4,0.8,9.6,1.28c3.2,0.48,6.4,0.8,9.6,1.12
		l4.8,0.48c3.2,0.32,6.4,0.64,9.6,0.8c3.2,0.16,6.4,0.48,9.6,0.64c3.2,0.16,6.4,0.32,9.44,0.48c7.84,0.32,15.84,0.48,23.68,0.48
		c266.56,0,499.2-196.2,537.44-467.54c0.64-4.8,1.28-9.59,1.76-14.39c0.32-3.2,0.64-6.4,0.96-9.59s0.64-6.4,0.8-9.59
		c0.16-3.2,0.48-6.08,0.64-9.27c0-0.16,0-0.32,0-0.48c0.16-3.04,0.32-6.24,0.48-9.27C2000.03,931,1900.35,749.36,1740.67,647.5z
		 M1198.27,1295.73c5.6-39.81,42.4-67.64,82.24-62.04c39.84,5.6,67.68,42.37,62.08,82.19c-5.6,39.81-42.4,67.64-82.24,62.04l0,0
		C1220.35,1372.32,1192.51,1335.55,1198.27,1295.73C1198.11,1295.73,1198.11,1295.73,1198.27,1295.73L1198.27,1295.73z
		 M1339.87,1065c4.32-31.02,32.96-52.61,64-48.29c31.04,4.32,52.64,32.94,48.32,63.96c-4.32,31.02-32.96,52.61-64,48.29l0,0
		C1357.15,1124.64,1335.55,1096.02,1339.87,1065L1339.87,1065L1339.87,1065z M1306.75,868.32L1306.75,868.32
		c9.92,22.23,4.48,48.13-13.44,64.6l0,0c-11.36,10.39-26.4,15.67-41.92,14.71c-1.44,0-2.88-0.16-4.32-0.48
		c-30.88-4.32-52.48-32.94-48.16-63.8c4.32-30.86,32.96-52.45,63.84-48.13C1282.27,837.94,1298.75,850.41,1306.75,868.32
		L1306.75,868.32z M1120.35,1036.06c26.08,3.84,44.16,27.98,40.32,54.05c-3.84,25.9-27.68,43.81-53.6,40.29l-1.6-0.32
		c-25.92-4.64-43.2-29.58-38.4-55.48C1071.55,1049.65,1095.07,1032.54,1120.35,1036.06L1120.35,1036.06z M1480.35,1598.58l-11.2,0.8
		c-2.24,0.16-4.48,0.32-7.04,0.48l-8,0.16c-5.6,0-12,0.16-18.88,0.16c-6.88-0.32-14.24-0.8-22.08-1.12c-4-0.16-8-0.64-12.32-1.12
		l-12.96-1.44c-2.24-0.32-4.48-0.48-6.72-0.8l-6.88-1.12l-14.24-2.4l-3.68-0.64l-3.68-0.8l-7.36-1.76l-15.2-3.52l-15.52-4.48l-8-2.4
		c-2.72-0.8-5.28-1.76-8-2.72l-16.16-5.76c-5.44-2.08-10.88-4.32-16.32-6.56l-8.32-3.52c-2.72-1.12-5.44-2.56-8.16-3.84l-16.64-7.99
		c-5.44-2.88-10.88-5.92-16.48-8.95l-4.16-2.24c-1.44-0.8-2.72-1.6-4.16-2.4l-8.16-4.96c-2.72-1.6-5.44-3.36-8.16-4.96l-4.16-2.56
		l-4-2.72l-16-11.03c-42.88-30.86-80.32-68.44-111.36-111.29l-11.04-15.99l-2.72-4l-2.56-4.16c-1.6-2.72-3.36-5.44-4.96-8.15
		c-6.88-10.71-12.64-21.91-18.56-32.78c-2.72-5.6-5.28-11.03-8-16.63c-1.28-2.72-2.72-5.44-3.84-8.15c-1.12-2.72-2.24-5.6-3.36-8.31
		c-2.24-5.6-4.64-10.87-6.56-16.31c-1.92-5.44-3.84-10.87-5.76-16.15c-0.96-2.72-1.92-5.28-2.72-7.99s-1.6-5.28-2.4-7.99
		c-0.96-3.04-1.76-6.24-2.72-9.27c-0.64-2.08-1.28-4.32-1.76-6.4c-1.28-5.12-2.4-10.23-3.52-15.19c-0.64-2.56-1.12-4.96-1.76-7.36
		l-0.8-3.68c0-0.32-0.16-0.64-0.16-0.96l-0.48-2.72c-0.8-4.8-1.6-9.59-2.4-14.23c-0.48-2.4-0.8-4.64-1.12-6.88s-0.64-4.48-0.8-6.72
		c-0.48-4.48-0.96-8.79-1.44-12.95c-0.48-4.16-0.96-8.31-1.12-12.31c-0.48-7.99-0.8-15.35-1.12-22.07c0-6.88,0-13.11,0-18.87
		c0-2.88,0-5.44,0-7.99s0.32-4.8,0.48-7.04c0.32-4.32,0.64-7.99,0.8-11.03c0.48-6.08,0.8-9.27,0.8-9.27s0.48,3.2,1.28,9.11
		c0.32,3.04,0.8,6.72,1.28,11.03c0.32,2.24,0.64,4.48,0.8,7.04c0.16,2.56,0.8,5.12,1.28,7.84c0.96,5.44,1.92,11.51,2.88,18.23
		c1.44,6.56,2.88,13.75,4.32,21.27c0.64,3.84,1.76,7.68,2.72,11.67c0.96,4,1.92,7.99,3.04,12.31c0.48,2.08,0.96,4.32,1.6,6.4
		c0.64,2.08,1.28,4.32,1.92,6.4c1.28,4.32,2.56,8.79,3.84,13.27c0.32,1.12,0.64,2.24,0.96,3.36c0.16,0.64,0.48,1.28,0.64,1.92
		l0.48,1.44l2.4,6.88c1.6,4.64,3.2,9.43,4.8,14.23l4,10.39l1.6,4.16l2.88,7.36c0.96,2.4,2.08,4.8,3.2,7.36
		c2.24,4.96,4.32,9.91,6.56,14.87c2.24,4.96,4.8,9.91,7.36,15.03c1.28,2.56,2.56,5.12,3.84,7.68c1.28,2.56,2.72,4.96,4,7.52
		l8.32,15.19c3.04,4.96,6.08,10.07,9.28,15.03l2.24,3.84c0.8,1.28,1.6,2.56,2.4,3.84l4.96,7.52c6.4,10.07,13.92,19.67,21.12,29.58
		c30.08,39.34,65.28,74.35,104.48,104.41c9.92,7.2,19.52,14.55,29.6,20.95l7.52,4.96c1.28,0.8,2.56,1.6,3.84,2.4l3.84,2.24
		c5.12,3.04,10.08,6.08,15.04,9.11l15.2,8.31c2.56,1.28,4.96,2.88,7.52,4l7.68,3.84c5.12,2.4,10.08,5.12,15.04,7.36l14.88,6.56
		c2.4,1.12,4.8,2.24,7.36,3.2l7.36,2.88l14.4,5.6l14.24,4.8l6.88,2.4l3.36,1.12l3.36,0.96l13.28,3.84l6.4,1.92
		c2.08,0.64,4.32,1.12,6.4,1.6c4.16,1.12,8.32,2.08,12.32,3.04s7.84,2.08,11.68,2.72c7.52,1.6,14.72,2.88,21.28,4.32l18.24,2.88
		l7.84,1.28l6.88,0.8l11.04,1.28l9.28,1.28L1480.35,1598.58z M1636.67,1410.7c-3.84,26.86-28.64,45.57-55.52,41.89
		s-45.6-28.62-41.92-55.48c3.84-26.86,28.64-45.57,55.52-41.89C1621.63,1359.05,1640.51,1383.84,1636.67,1410.7L1636.67,1410.7
		L1636.67,1410.7z M1565.95,1178.85c2.56-18.07,19.36-30.7,37.44-28.14c18.08,2.56,30.72,19.35,28.16,37.42s-19.36,30.7-37.44,28.14
		C1576.03,1213.7,1563.55,1196.91,1565.95,1178.85L1565.95,1178.85z M1650.27,930.84c-5.6,39.5-42.08,67-81.44,61.4
		c-39.52-5.6-67.04-42.05-61.44-81.39c5.6-39.5,42.08-67,81.44-61.4l0,0C1628.35,854.89,1655.87,891.35,1650.27,930.84
		L1650.27,930.84z M1845.15,1083.71c-3.68,26.86-28.48,45.41-55.36,41.73c-26.88-3.68-45.44-28.46-41.76-55.33
		c3.68-26.7,28.48-45.41,55.36-41.73C1830.27,1032.22,1848.83,1057,1845.15,1083.71L1845.15,1083.71L1845.15,1083.71z"/>
</g>
<g id="SvgjsG1679" transform="matrix(2.4295988729888043,0,0,2.4295988729888043,-2.680991417661452,163.42512697412323)">
	<path class="st1" d="M1.1,48.62h10.94c1.22,0,2.34,0.19,3.36,0.57s1.9,0.89,2.64,1.54c0.74,0.65,1.32,1.39,1.73,2.23
		c0.42,0.84,0.63,1.72,0.63,2.64c0,1.1-0.16,2.14-0.49,3.1c-0.33,0.96-0.84,1.8-1.52,2.51c-0.69,0.71-1.56,1.27-2.61,1.68
		s-2.3,0.62-3.73,0.62h-3.3v4.51h2.17v4.28H1.1v-4.28h2.45v-15.1H1.1L1.1,48.62L1.1,48.62z M8.74,52.92v6.36h2.14
		c1.19,0,2.13-0.25,2.83-0.75c0.7-0.5,1.05-1.29,1.05-2.37c0-1.01-0.33-1.8-0.98-2.37c-0.66-0.57-1.62-0.86-2.89-0.86L8.74,52.92
		L8.74,52.92z M22.01,48.62h9.5v4.29h-2.17v9.82c0,0.9,0.1,1.66,0.3,2.28c0.2,0.62,0.49,1.13,0.85,1.53c0.36,0.4,0.8,0.68,1.3,0.87
		s1.05,0.27,1.64,0.27c0.61,0,1.17-0.08,1.68-0.23c0.51-0.16,0.94-0.42,1.3-0.8s0.64-0.89,0.83-1.52c0.19-0.64,0.29-1.43,0.29-2.39
		v-9.82h-2.52v-4.29h9.5v4.29h-1.89v9.21c0,1.67-0.24,3.15-0.72,4.44s-1.14,2.39-1.98,3.29c-0.84,0.9-1.82,1.58-2.95,2.05
		c-1.13,0.47-2.34,0.7-3.63,0.7c-1.28,0-2.48-0.23-3.59-0.69s-2.09-1.13-2.91-2.01c-0.83-0.88-1.48-1.95-1.96-3.21
		c-0.48-1.26-0.72-2.69-0.72-4.28v-9.49h-2.14L22.01,48.62L22.01,48.62z M47.37,48.62H59.9c1.22,0,2.31,0.18,3.27,0.55
		s1.77,0.85,2.42,1.46c0.66,0.61,1.16,1.32,1.51,2.12c0.35,0.81,0.52,1.65,0.52,2.52c0,0.8-0.09,1.5-0.26,2.11
		c-0.17,0.6-0.42,1.14-0.75,1.61c-0.33,0.47-0.73,0.88-1.21,1.24c-0.48,0.36-1.03,0.68-1.64,0.98c0.53,0.27,1,0.68,1.41,1.24
		c0.41,0.56,0.71,1.28,0.92,2.16l0.8,3.08h1.95l0.03,4.61h-6.88l-0.94-5.62c-0.09-0.67-0.24-1.24-0.43-1.73
		c-0.19-0.48-0.45-0.88-0.77-1.19c-0.32-0.31-0.72-0.53-1.18-0.68c-0.46-0.15-1.01-0.22-1.65-0.22h-2.02v5.15h2.17v4.28h-9.81v-4.28
		h2.45v-15.1h-2.45L47.37,48.62L47.37,48.62z M55.01,52.92v5.73h3.11c0.59,0,1.13-0.05,1.6-0.16c0.47-0.11,0.88-0.28,1.22-0.52
		c0.34-0.23,0.6-0.53,0.78-0.88c0.18-0.35,0.27-0.78,0.27-1.26c0-0.92-0.33-1.63-0.98-2.14s-1.62-0.77-2.89-0.77H55.01L55.01,52.92z
		 M71.28,48.62h18.84v8.07h-5.09v-3.36h-6.08v4.67h4.7v4.53h-4.7v5.48h6.08v-4.2h5.09v8.48H71.28v-4.28h2.48V53.34h-2.48V48.62
		L71.28,48.62z M99.24,68.02h2.42v-15.1h-2.42v-4.33l11.55,0.03c1.07,0,2.05,0.19,2.95,0.57c0.89,0.38,1.66,0.9,2.3,1.55
		c0.65,0.65,1.15,1.41,1.51,2.28s0.54,1.79,0.54,2.77c0,1.15-0.2,2.09-0.6,2.84c-0.4,0.75-0.97,1.35-1.71,1.81
		c0.78,0.5,1.4,1.12,1.85,1.85s0.68,1.63,0.68,2.68c0,1.07-0.18,2.06-0.55,2.95c-0.37,0.9-0.88,1.67-1.52,2.32
		c-0.64,0.65-1.4,1.16-2.27,1.51c-0.87,0.36-1.82,0.54-2.83,0.54H99.24L99.24,68.02L99.24,68.02z M106.85,62.5v5.51h3.94
		c0.3,0,0.59-0.08,0.85-0.23s0.49-0.36,0.69-0.62c0.19-0.26,0.35-0.55,0.46-0.89c0.11-0.34,0.17-0.69,0.17-1.05
		c0-0.39-0.06-0.74-0.17-1.07c-0.11-0.33-0.27-0.61-0.47-0.86c-0.2-0.24-0.43-0.44-0.7-0.58s-0.54-0.21-0.84-0.21L106.85,62.5
		L106.85,62.5z M106.85,52.92v5.31h3.72c0.29,0,0.57-0.07,0.83-0.22c0.26-0.15,0.49-0.34,0.68-0.59c0.19-0.24,0.35-0.52,0.46-0.83
		c0.11-0.31,0.17-0.63,0.17-0.96c0-0.32-0.06-0.65-0.17-0.97c-0.11-0.32-0.27-0.61-0.46-0.87c-0.19-0.26-0.42-0.47-0.68-0.63
		c-0.26-0.16-0.54-0.24-0.83-0.24L106.85,52.92L106.85,52.92z M133.09,68.02h2.36l-1.06-3.4h-7.28l-1.06,3.4h2.5v4.28h-8.98v-4.28
		h1.77l6.45-19.39h6.27l6.31,19.39h1.72v4.28h-8.98L133.09,68.02L133.09,68.02z M128.34,60.61h4.78l-2.41-7.7L128.34,60.61z
		 M144.2,48.62h10.14v4.29h-2.5v6.89l7.58-6.61v-4.58h8.08v4.61h-1.77L157.84,60l7.56,7.65h1.92v4.64h-7.86v-4.64l-7.62-7.62v7.98
		h2.5v4.28H144.2v-4.28h2.45v-15.1h-2.45L144.2,48.62L144.2,48.62z M170.06,48.62h18.84v8.07h-5.09v-3.36h-6.08v4.67h4.7v4.53h-4.7
		v5.48h6.08v-4.2h5.09v8.48h-18.84v-4.28h2.48V53.34h-2.48V48.62L170.06,48.62z M191.13,48.62h9.09c1.08,0,2.12,0.14,3.12,0.42
		s1.92,0.68,2.78,1.19c0.86,0.51,1.64,1.12,2.34,1.83c0.7,0.71,1.3,1.51,1.8,2.38c0.5,0.87,0.89,1.82,1.16,2.83
		c0.27,1.01,0.41,2.06,0.41,3.15c0,1.09-0.14,2.14-0.41,3.15c-0.27,1.01-0.66,1.95-1.16,2.83c-0.5,0.88-1.1,1.68-1.8,2.4
		c-0.7,0.72-1.48,1.34-2.34,1.86c-0.86,0.52-1.79,0.91-2.78,1.19c-0.99,0.28-2.03,0.42-3.12,0.42h-9.09v-4.28h1.89v-15.1h-1.89
		L191.13,48.62L191.13,48.62z M198.21,52.92v15.1h1.98c0.84,0,1.64-0.2,2.39-0.59c0.75-0.4,1.4-0.93,1.95-1.62
		c0.55-0.68,0.99-1.48,1.31-2.4c0.32-0.92,0.48-1.91,0.48-2.97c0-1.05-0.16-2.04-0.48-2.95c-0.32-0.92-0.76-1.71-1.31-2.39
		c-0.55-0.68-1.2-1.21-1.95-1.59c-0.75-0.39-1.55-0.58-2.39-0.58L198.21,52.92L198.21,52.92z"/>
</g>
<g id="SvgjsG1680" transform="matrix(0.7106936374870546,0,0,0.7106936374870546,27.914716844833986,218.10539885301554)">
	<path class="st0" d="M26.73,193.24l5.15,18.8h0.06l5.57-18.8h3.01l5.54,18.8h0.06l5.25-18.8h2.82l-6.66,22.64h-2.91l-5.6-19.19
		h-0.06l-5.63,19.19h-2.94l-6.62-22.64H26.73z M87.8,193.24v2.49H76.25v7.1h10.78v2.49H76.25v8.06h12.13v2.49H73.56v-22.64H87.8z
		 M111.68,193.24v7.68h-2.3v-7.68H111.68z M140.32,193.24c2.97,0,5.15,0.49,6.54,1.47c1.4,0.98,2.1,2.56,2.1,4.73
		c0,1.6-0.47,2.92-1.42,3.95c-0.95,1.03-2.36,1.72-4.24,2.06l6.43,10.43h-3.3l-6.14-10.17h-3.46v10.17h-2.69v-22.64
		C134.15,193.24,140.32,193.24,140.32,193.24z M140.03,203.22c2.11,0,3.65-0.29,4.61-0.88c0.96-0.59,1.44-1.54,1.44-2.86
		c0-1.28-0.43-2.22-1.3-2.83c-0.86-0.61-2.2-0.91-4.02-0.91h-3.94v7.48H140.03z M184.3,193.24v2.49h-11.55v7.1h10.78v2.49h-10.78
		v8.06h12.13v2.49h-14.82v-22.64H184.3z M240.44,193.24v16.82c0,1.94-0.57,3.49-1.71,4.65c-1.14,1.16-2.73,1.74-4.75,1.74
		c-1.6,0-2.93-0.41-3.98-1.22c-1.06-0.81-1.74-2.03-2.06-3.65l2.69-0.54c0.36,1.88,1.49,2.85,3.39,2.91c2.47,0,3.72-1.58,3.74-4.73
		v-15.99H240.44L240.44,193.24z M265.02,193.24v13.62c0,2.3,0.49,4.05,1.47,5.24s2.44,1.81,4.38,1.85c1.94-0.02,3.4-0.63,4.37-1.84
		c0.97-1.2,1.47-2.92,1.49-5.13v-13.75h2.69v14.1c0,2.88-0.75,5.11-2.24,6.7c-1.49,1.59-3.59,2.39-6.3,2.41
		c-2.67,0-4.75-0.8-6.26-2.41c-1.5-1.61-2.27-3.85-2.29-6.73v-14.07H265.02L265.02,193.24z M307.94,192.67
		c2.75,0,4.86,0.88,6.34,2.65l-2.21,1.92c-0.85-1.34-2.23-2.04-4.13-2.08c-1.43,0-2.59,0.34-3.49,1.02
		c-0.9,0.68-1.34,1.61-1.34,2.78c0,1.02,0.34,1.83,1.02,2.43c0.68,0.6,1.96,1.18,3.84,1.76c2.43,0.7,4.15,1.56,5.17,2.57
		c1.01,1.01,1.52,2.38,1.52,4.11c0,2-0.75,3.6-2.24,4.8c-1.49,1.19-3.4,1.8-5.73,1.82c-1.56,0-2.94-0.28-4.16-0.83
		c-1.22-0.55-2.15-1.32-2.82-2.3l2.3-1.89c0.49,0.81,1.17,1.43,2.05,1.87c0.87,0.44,1.8,0.66,2.78,0.66c1.34,0,2.5-0.38,3.47-1.14
		c0.97-0.76,1.46-1.69,1.46-2.8c0-1-0.28-1.79-0.85-2.37c-0.57-0.58-1.5-1.07-2.8-1.47l-2.59-0.86c-1.94-0.66-3.31-1.49-4.11-2.48
		c-0.8-0.99-1.2-2.21-1.2-3.66c0-1.92,0.71-3.48,2.14-4.69C303.8,193.3,305.66,192.69,307.94,192.67z M350.66,193.24v2.49h-7.49
		v20.15h-2.69v-20.15H333v-2.49H350.66L350.66,193.24z M402.36,193.24c2.39,0,4.23,0.49,5.54,1.46c1.3,0.97,1.96,2.34,1.98,4.11
		c0,1.3-0.36,2.39-1.07,3.26c-0.71,0.87-1.68,1.49-2.9,1.85v0.06c1.47,0.13,2.69,0.72,3.66,1.77c0.97,1.06,1.46,2.32,1.46,3.79
		c0,2-0.76,3.56-2.27,4.65c-1.51,1.1-3.67,1.66-6.46,1.68h-6.85v-22.64H402.36L402.36,193.24z M401.97,202.84
		c1.64,0,2.89-0.29,3.74-0.88c0.85-0.59,1.28-1.52,1.28-2.8c0-2.24-1.58-3.38-4.74-3.42h-4.13v7.1H401.97L401.97,202.84z
		 M402.81,213.39c1.62,0,2.92-0.36,3.89-1.07c0.97-0.71,1.46-1.67,1.46-2.86c0-1.36-0.48-2.39-1.44-3.09
		c-0.96-0.69-2.27-1.04-3.94-1.04h-4.64v8.06H402.81z M441.85,193.24l9.63,22.64h-3.14l-2.3-5.56h-11.33l-2.34,5.56h-3.04
		l9.98-22.64H441.85z M440.48,196.7l-4.7,11.13h9.25l-4.48-11.13H440.48z M473.54,193.24v9.79h0.38l10.3-9.79h3.87l-11.2,10.33
		l11.74,12.31h-3.94l-10.78-11.51h-0.38v11.51h-2.69v-22.64H473.54L473.54,193.24z M510.06,193.24v22.64h-2.69v-22.64H510.06z
		 M535.44,193.24l13.12,18.8h0.06v-18.8h2.69v22.64h-3.39l-13.12-18.8h-0.06v18.8h-2.69v-22.64H535.44z M584.18,192.67
		c3.35,0,6.02,0.99,8,2.97l-2.02,2.11c-0.79-0.83-1.72-1.47-2.8-1.92c-1.08-0.45-2.2-0.67-3.38-0.67c-2.6,0-4.76,0.9-6.48,2.69
		c-1.72,1.79-2.6,4.03-2.64,6.72c0.02,2.79,0.91,5.05,2.66,6.76s3.99,2.6,6.72,2.64c1.96,0,3.84-0.44,5.63-1.31v-6.94h-5.22v-2.49
		h7.9v11.13c-2.6,1.41-5.43,2.11-8.48,2.11c-3.56,0-6.46-1.11-8.69-3.34s-3.37-5.08-3.41-8.55c0.02-3.48,1.17-6.31,3.46-8.51
		C577.73,193.86,580.64,192.73,584.18,192.67L584.18,192.67z M618.11,214.16c0,0.51-0.19,0.96-0.58,1.34
		c-0.38,0.38-0.83,0.58-1.34,0.58c-0.49,0-0.93-0.19-1.33-0.58c-0.39-0.38-0.59-0.83-0.59-1.34c0-0.51,0.19-0.96,0.56-1.34
		c0.37-0.38,0.83-0.58,1.36-0.58s0.99,0.19,1.36,0.56C617.92,213.17,618.11,213.62,618.11,214.16L618.11,214.16z"/>
</g>
</svg>
